<svg width="170" height="130" viewBox="0 0 170 130" fill="none" xmlns="http://www.w3.org/2000/svg">
<path d="M40.667 118.35V85.7625C40.667 83.9292 41.1066 82.1875 41.9859 80.5375C42.8652 78.8875 44.088 77.5583 45.6545 76.55L51.7503 72.5625C52.3969 80.2625 53.4128 86.8167 54.7982 92.225C56.1837 97.6334 58.3541 103.638 61.3097 110.238L40.667 118.35ZM69.6222 107.35C66.3896 101.3 63.9882 94.8834 62.418 88.1C60.8479 81.3167 60.0628 74.3042 60.0628 67.0625C60.0628 55.6042 62.3497 44.8114 66.9234 34.684C71.4971 24.5567 77.5228 16.8787 85.0003 11.65C92.4816 16.875 98.5091 24.553 103.083 34.684C107.657 44.815 109.942 55.6079 109.938 67.0625C109.938 74.2125 109.153 81.1572 107.583 87.8965C106.012 94.6358 103.611 101.12 100.378 107.35H69.6222ZM85.0003 68.85C88.0482 68.85 90.6584 67.7739 92.8307 65.6215C95.003 63.4692 96.0873 60.8787 96.0837 57.85C96.08 54.8214 94.9956 52.2327 92.8307 50.084C90.6658 47.9354 88.0556 46.8574 85.0003 46.85C81.945 46.8427 79.3367 47.9207 77.1755 50.084C75.0142 52.2474 73.9281 54.836 73.917 57.85C73.9059 60.864 74.9921 63.4545 77.1755 65.6215C79.3589 67.7885 81.9672 68.8647 85.0003 68.85ZM129.334 118.35L108.691 110.238C111.647 103.638 113.817 97.6334 115.202 92.225C116.588 86.8167 117.604 80.2625 118.25 72.5625L124.346 76.55C125.916 77.5583 127.141 78.8875 128.02 80.5375C128.9 82.1875 129.337 83.9292 129.334 85.7625V118.35Z" fill="#6F32BF"/>
</svg>
