<svg width="170" height="130" viewBox="0 0 170 130" fill="none" xmlns="http://www.w3.org/2000/svg">
<path d="M144.062 100.438H25.9375C24.8932 100.438 23.8917 100.852 23.1533 101.591C22.4148 102.329 22 103.331 22 104.375C22 105.419 22.4148 106.421 23.1533 107.159C23.8917 107.898 24.8932 108.312 25.9375 108.312H144.062C145.107 108.312 146.108 107.898 146.847 107.159C147.585 106.421 148 105.419 148 104.375C148 103.331 147.585 102.329 146.847 101.591C146.108 100.852 145.107 100.438 144.062 100.438ZM128.139 88.625C127.173 77.8511 122.21 67.8287 114.226 60.5295C106.243 53.2303 95.8172 49.1826 85 49.1826C74.1828 49.1826 63.7571 53.2303 55.7737 60.5295C47.7904 67.8287 42.8273 77.8511 41.8608 88.625H49.7751C50.7297 79.9499 54.852 71.9322 61.352 66.1082C67.852 60.2842 76.2725 57.0637 85 57.0637C93.7275 57.0637 102.148 60.2842 108.648 66.1082C115.148 71.9322 119.27 79.9499 120.225 88.625H128.139ZM85 21.6875C83.9557 21.6875 82.9542 22.1023 82.2158 22.8408C81.4773 23.5792 81.0625 24.5807 81.0625 25.625V37.4375C81.0625 38.4818 81.4773 39.4833 82.2158 40.2217C82.9542 40.9602 83.9557 41.375 85 41.375C86.0443 41.375 87.0458 40.9602 87.7842 40.2217C88.5227 39.4833 88.9375 38.4818 88.9375 37.4375V25.625C88.9375 24.5807 88.5227 23.5792 87.7842 22.8408C87.0458 22.1023 86.0443 21.6875 85 21.6875ZM34.8835 42.446C34.1453 43.1844 33.7307 44.1857 33.7307 45.2298C33.7307 46.2739 34.1453 47.2752 34.8835 48.0136L43.231 56.3611C43.5942 56.7372 44.0287 57.0372 44.5091 57.2435C44.9895 57.4499 45.5062 57.5585 46.029 57.563C46.5518 57.5676 47.0703 57.468 47.5542 57.27C48.0381 57.072 48.4777 56.7796 48.8474 56.4099C49.2171 56.0402 49.5095 55.6006 49.7075 55.1167C49.9055 54.6328 50.0051 54.1143 50.0005 53.5915C49.996 53.0687 49.8874 52.552 49.681 52.0716C49.4747 51.5912 49.1747 51.1567 48.7986 50.7935L40.4511 42.446C39.7127 41.7078 38.7114 41.2932 37.6673 41.2932C36.6232 41.2932 35.6219 41.7078 34.8835 42.446ZM135.116 42.446C134.378 41.7078 133.377 41.2932 132.333 41.2932C131.289 41.2932 130.287 41.7078 129.549 42.446L121.201 50.7935C120.825 51.1567 120.525 51.5912 120.319 52.0716C120.113 52.552 120.004 53.0687 119.999 53.5915C119.995 54.1143 120.095 54.6328 120.293 55.1167C120.49 55.6006 120.783 56.0402 121.153 56.4099C121.522 56.7796 121.962 57.072 122.446 57.27C122.93 57.468 123.448 57.5676 123.971 57.563C124.494 57.5585 125.011 57.4499 125.491 57.2435C125.971 57.0372 126.406 56.7372 126.769 56.3611L135.116 48.0136C135.855 47.2752 136.269 46.2739 136.269 45.2298C136.269 44.1857 135.855 43.1844 135.116 42.446Z" fill="#6F32BF"/>
</svg>
