<svg width="176" height="22" viewBox="0 0 176 22" fill="none" xmlns="http://www.w3.org/2000/svg">
<path d="M13.1249 6.828V8.6375L18.6374 4.7L13.1249 1.15625V2.76625C10.903 2.96657 8.84411 4.01636 7.377 5.69695C5.90989 7.37753 5.14771 9.55933 5.24921 11.7879C5.35072 14.0165 6.30808 16.1199 7.92189 17.6602C9.5357 19.2005 11.6815 20.0587 13.9124 20.0562C15.8969 20.0562 18.6374 19.358 20.2124 17.6938C22.1811 15.4205 24.5279 9.69625 24.5279 9.69625L17.4981 14.255C17.0239 14.7883 16.4304 15.2021 15.7659 15.4627C15.1015 15.7233 14.3849 15.8233 13.6745 15.7546C12.9642 15.6858 12.28 15.4503 11.6779 15.0672C11.0758 14.684 10.5726 14.1641 10.2094 13.5498C9.84711 12.9342 9.63545 12.2417 9.59166 11.5287C9.54788 10.8158 9.67321 10.1026 9.95744 9.44731C10.2417 8.79201 10.6767 8.21317 11.2272 7.75798C11.7776 7.30279 12.4279 6.98413 13.1249 6.828Z" fill="url(#paint0_linear_2142_2226)"/>
<path d="M28.8757 15.1721V13.3626L23.3632 17.3001L28.8757 20.8439V19.2339C31.0975 19.0335 33.1564 17.9837 34.6235 16.3032C36.0907 14.6226 36.8528 12.4408 36.7513 10.2122C36.6498 7.98365 35.6925 5.88017 34.0787 4.33991C32.4648 2.79965 30.319 1.94137 28.0882 1.94385C26.1037 1.94385 23.3632 2.6421 21.7882 4.30635C19.8194 6.5796 17.4727 12.3039 17.4727 12.3039L24.5007 7.7451C24.9747 7.21169 25.5681 6.7979 26.2325 6.53748C26.8969 6.27706 27.6135 6.17739 28.3237 6.24659C29.034 6.3158 29.7178 6.55193 30.3194 6.93572C30.9211 7.3195 31.4235 7.84007 31.7856 8.45497C32.1478 9.06986 32.3594 9.76165 32.4033 10.4739C32.4473 11.1862 32.3222 11.8987 32.0383 12.5535C31.7544 13.2082 31.3198 13.7865 30.7699 14.2413C30.2199 14.6961 29.5703 15.0144 28.8739 15.1704" fill="url(#paint1_linear_2142_2226)"/>
<path d="M49.456 16C48.64 16 48.04 15.964 47.656 15.892C47.272 15.82 47.08 15.736 47.08 15.64L47.8 14.074C48.076 14.122 48.76 14.17 49.852 14.218C50.956 14.254 52.468 14.272 54.388 14.272H54.73C55.246 14.272 55.612 14.182 55.828 14.002C56.044 13.81 56.152 13.492 56.152 13.048V12.688C56.152 12.268 56.062 11.968 55.882 11.788C55.714 11.608 55.33 11.518 54.73 11.518H50.554C49.342 11.518 48.46 11.296 47.908 10.852C47.356 10.396 47.08 9.658 47.08 8.638V8.35C47.08 7.822 47.176 7.336 47.368 6.892C47.572 6.448 47.914 6.094 48.394 5.83C48.874 5.554 49.534 5.416 50.374 5.416H55.27C56.086 5.416 56.746 5.458 57.25 5.542C57.754 5.626 58.006 5.716 58.006 5.812L57.646 7.324C57.334 7.288 56.626 7.252 55.522 7.216C54.418 7.168 52.936 7.144 51.076 7.144L50.878 7.126C50.326 7.126 49.954 7.24 49.762 7.468C49.57 7.684 49.468 7.96 49.456 8.296V8.602C49.456 8.998 49.564 9.298 49.78 9.502C50.008 9.694 50.38 9.79 50.896 9.79H54.892C55.66 9.79 56.314 9.868 56.854 10.024C57.394 10.18 57.808 10.468 58.096 10.888C58.384 11.296 58.528 11.902 58.528 12.706V12.994C58.528 13.894 58.294 14.62 57.826 15.172C57.37 15.724 56.572 16 55.432 16H49.456ZM73.2315 16.18C72.6435 16.18 72.1335 16.06 71.7015 15.82C71.2695 15.58 70.8435 15.256 70.4235 14.848C69.9675 14.368 69.4155 13.816 68.7675 13.192C68.4675 12.88 68.1615 12.622 67.8495 12.418C67.5375 12.214 67.1835 12.058 66.7875 11.95C66.4035 11.842 65.9235 11.788 65.3475 11.788H64.5015V16H62.1255V6.856L61.9455 5.416H64.5015V10.024H65.5095C65.7495 10.024 65.9475 9.994 66.1035 9.934C66.2595 9.874 66.4035 9.778 66.5355 9.646C66.8715 9.31 67.2555 8.89 67.6875 8.386C68.1195 7.882 68.5395 7.366 68.9475 6.838C69.3675 6.298 69.7275 5.824 70.0275 5.416H72.9435L72.2055 6.496C71.8695 6.844 71.5095 7.222 71.1255 7.63C70.7415 8.038 70.3635 8.44 69.9915 8.836C69.6195 9.22 69.2835 9.562 68.9835 9.862C68.6835 10.15 68.4615 10.36 68.3175 10.492C68.6415 10.6 68.9355 10.738 69.1995 10.906C69.4755 11.074 69.8115 11.32 70.2075 11.644C70.5075 11.884 70.7955 12.13 71.0715 12.382C71.3595 12.634 71.6895 12.934 72.0615 13.282C72.4815 13.666 72.8775 13.948 73.2495 14.128C73.6215 14.308 73.9335 14.422 74.1855 14.47C74.4495 14.518 74.6175 14.542 74.6895 14.542L74.3295 16C74.2935 16.036 74.1855 16.072 74.0055 16.108C73.8255 16.156 73.5675 16.18 73.2315 16.18ZM77.2068 16V5.416H79.5828V16H77.2068ZM83.3627 16L83.5427 14.56V5.416H85.9187V14.272H93.3707L94.0907 15.802C94.0907 15.85 93.9287 15.898 93.6047 15.946C93.2807 15.982 92.7227 16 91.9307 16H83.3627ZM96.6025 16L96.7825 14.56V5.416H99.1585V14.272H106.61L107.33 15.802C107.33 15.85 107.168 15.898 106.844 15.946C106.52 15.982 105.962 16 105.17 16H96.6025Z" fill="#333333"/>
<path d="M116.713 16C115.897 16 115.297 15.964 114.913 15.892C114.529 15.82 114.337 15.736 114.337 15.64L115.057 14.074C115.333 14.122 116.017 14.17 117.109 14.218C118.213 14.254 119.725 14.272 121.645 14.272H121.987C122.503 14.272 122.869 14.182 123.085 14.002C123.301 13.81 123.409 13.492 123.409 13.048V12.688C123.409 12.268 123.319 11.968 123.139 11.788C122.971 11.608 122.587 11.518 121.987 11.518H117.811C116.599 11.518 115.717 11.296 115.165 10.852C114.613 10.396 114.337 9.658 114.337 8.638V8.35C114.337 7.822 114.433 7.336 114.625 6.892C114.829 6.448 115.171 6.094 115.651 5.83C116.131 5.554 116.791 5.416 117.631 5.416H122.527C123.343 5.416 124.003 5.458 124.507 5.542C125.011 5.626 125.263 5.716 125.263 5.812L124.903 7.324C124.591 7.288 123.883 7.252 122.779 7.216C121.675 7.168 120.193 7.144 118.333 7.144L118.135 7.126C117.583 7.126 117.211 7.24 117.019 7.468C116.827 7.684 116.725 7.96 116.713 8.296V8.602C116.713 8.998 116.821 9.298 117.037 9.502C117.265 9.694 117.637 9.79 118.153 9.79H122.149C122.917 9.79 123.571 9.868 124.111 10.024C124.651 10.18 125.065 10.468 125.353 10.888C125.641 11.296 125.785 11.902 125.785 12.706V12.994C125.785 13.894 125.551 14.62 125.083 15.172C124.627 15.724 123.829 16 122.689 16H116.713ZM131.813 16L127.943 5.434H130.463L133.001 12.346L133.415 14.092H133.595L133.829 12.868L136.223 5.434H139.283L141.785 12.868L142.109 14.092H142.289L142.703 12.346L145.061 5.434H147.581L147.401 6.514L143.693 16H140.633L138.185 8.926L137.825 7.774H137.645L137.303 8.926L134.873 16H131.813ZM147.225 16L152.499 5.416H156.045L161.301 16H158.529L157.467 13.714H151.023L149.853 16H147.225ZM151.671 11.95H156.801L154.335 7.036H154.155L151.671 11.95ZM163.825 16V6.856L163.645 5.398H171.619C172.387 5.398 172.987 5.5 173.419 5.704C173.863 5.908 174.187 6.178 174.391 6.514C174.607 6.838 174.745 7.186 174.805 7.558C174.865 7.93 174.895 8.284 174.895 8.62V9.682C174.895 9.958 174.853 10.27 174.769 10.618C174.685 10.954 174.529 11.284 174.301 11.608C174.073 11.92 173.743 12.184 173.311 12.4C172.879 12.604 172.315 12.706 171.619 12.706H169.783C169.027 12.706 168.319 12.688 167.659 12.652C167.011 12.616 166.525 12.586 166.201 12.562V16H163.825ZM166.201 10.978H171.097C171.637 10.978 172.009 10.846 172.213 10.582C172.417 10.318 172.519 10 172.519 9.628V8.494C172.519 8.11 172.417 7.786 172.213 7.522C172.009 7.258 171.643 7.126 171.115 7.126H166.201V10.978Z" fill="#6F32BF"/>
<defs>
<linearGradient id="paint0_linear_2142_2226" x1="9.11039" y1="4.4375" x2="18.2069" y2="24.8232" gradientUnits="userSpaceOnUse">
<stop stop-color="#6F32BF"/>
<stop offset="1" stop-color="#9B70D3"/>
</linearGradient>
<linearGradient id="paint1_linear_2142_2226" x1="34.7662" y1="17.6939" x2="23.7412" y2="1.94385" gradientUnits="userSpaceOnUse">
<stop stop-color="#6F32BF"/>
<stop offset="1" stop-color="#9B70D3"/>
</linearGradient>
</defs>
</svg>
