<svg width="42" height="22" viewBox="0 0 42 22" fill="none" xmlns="http://www.w3.org/2000/svg">
<path d="M13.1249 6.828V8.6375L18.6374 4.7L13.1249 1.15625V2.76625C10.903 2.96657 8.84411 4.01636 7.377 5.69695C5.90989 7.37753 5.14771 9.55933 5.24921 11.7879C5.35072 14.0165 6.30808 16.1199 7.92189 17.6602C9.5357 19.2005 11.6815 20.0587 13.9124 20.0562C15.8969 20.0562 18.6374 19.358 20.2124 17.6938C22.1811 15.4205 24.5279 9.69625 24.5279 9.69625L17.4981 14.255C17.0239 14.7883 16.4304 15.2021 15.7659 15.4627C15.1015 15.7233 14.3849 15.8233 13.6745 15.7546C12.9642 15.6858 12.28 15.4503 11.6779 15.0672C11.0758 14.684 10.5726 14.1641 10.2094 13.5498C9.84711 12.9342 9.63545 12.2417 9.59166 11.5287C9.54788 10.8158 9.67321 10.1026 9.95744 9.44731C10.2417 8.79201 10.6767 8.21317 11.2272 7.75798C11.7776 7.30279 12.4279 6.98413 13.1249 6.828Z" fill="url(#paint0_linear_2121_2800)"/>
<path d="M28.8752 15.1721V13.3626L23.3627 17.3001L28.8752 20.8439V19.2339C31.097 19.0335 33.1559 17.9837 34.6231 16.3032C36.0902 14.6226 36.8523 12.4408 36.7508 10.2122C36.6493 7.98365 35.692 5.88017 34.0782 4.33991C32.4644 2.79965 30.3185 1.94137 28.0877 1.94385C26.1032 1.94385 23.3627 2.6421 21.7877 4.30635C19.8189 6.5796 17.4722 12.3039 17.4722 12.3039L24.5002 7.7451C24.9742 7.21169 25.5676 6.7979 26.232 6.53748C26.8964 6.27706 27.613 6.17739 28.3232 6.24659C29.0335 6.3158 29.7173 6.55193 30.319 6.93572C30.9206 7.3195 31.423 7.84007 31.7851 8.45497C32.1473 9.06986 32.3589 9.76165 32.4029 10.4739C32.4468 11.1862 32.3217 11.8987 32.0378 12.5535C31.7539 13.2082 31.3193 13.7865 30.7694 14.2413C30.2194 14.6961 29.5698 15.0144 28.8734 15.1704" fill="url(#paint1_linear_2121_2800)"/>
<defs>
<linearGradient id="paint0_linear_2121_2800" x1="9.11039" y1="4.4375" x2="18.2069" y2="24.8232" gradientUnits="userSpaceOnUse">
<stop stop-color="#6F32BF"/>
<stop offset="1" stop-color="#9B70D3"/>
</linearGradient>
<linearGradient id="paint1_linear_2121_2800" x1="34.7657" y1="17.6939" x2="23.7407" y2="1.94385" gradientUnits="userSpaceOnUse">
<stop stop-color="#6F32BF"/>
<stop offset="1" stop-color="#9B70D3"/>
</linearGradient>
</defs>
</svg>
